<svg width="693" height="553" viewBox="0 0 693 553" fill="none" xmlns="http://www.w3.org/2000/svg">
  <g filter="url(#filter0_d_54_8083)">
    <rect x="20" y="16" width="653" height="513" rx="20" fill="white"/>
  </g>
  <path d="M91.96 150H89.848V134.094H91.96L97.438 147.47L102.916 134.094H105.072V150H102.96V143.708C102.96 142.96 102.96 142.322 102.96 141.794C102.96 141.266 102.967 140.811 102.982 140.43C102.997 140.049 103.011 139.711 103.026 139.418C103.041 139.11 103.063 138.817 103.092 138.538L98.45 150H96.426L91.806 138.582C91.8647 138.963 91.9013 139.55 91.916 140.342C91.9453 141.134 91.96 142.087 91.96 143.202V150Z" fill="#494C68" fill-opacity="0.5"/>
  <path d="M184.26 135.084V150H182.104V135.084H184.26ZM177.308 136.074V134.094H189.034V136.074H177.308Z" fill="#494C68" fill-opacity="0.5"/>
  <path d="M265.06 150L260.33 134.094H262.574L265.478 143.818C265.595 144.229 265.705 144.661 265.808 145.116C265.911 145.571 266.021 146.099 266.138 146.7C266.27 146.055 266.395 145.519 266.512 145.094C266.644 144.669 266.769 144.243 266.886 143.818L269.9 134.094H272.232L275.224 143.818C275.356 144.243 275.481 144.683 275.598 145.138C275.715 145.593 275.833 146.113 275.95 146.7C276.097 146.025 276.221 145.468 276.324 145.028C276.441 144.588 276.551 144.192 276.654 143.84L279.58 134.094H281.78L276.984 150H274.916L271.066 137.416L267.172 150H265.06Z" fill="#494C68" fill-opacity="0.5"/>
  <path d="M360.26 135.084V150H358.104V135.084H360.26ZM353.308 136.074V134.094H365.034V136.074H353.308Z" fill="#494C68" fill-opacity="0.5"/>
  <path d="M440.004 134.094V150H437.848V134.094H440.004ZM447.44 136.074H438.002V134.094H447.44V136.074ZM446.252 143.246H437.958V141.288H446.252V143.246Z" fill="#494C68" fill-opacity="0.5"/>
  <path d="M519.924 138.384C519.924 137.475 520.151 136.675 520.606 135.986C521.061 135.297 521.699 134.761 522.52 134.38C523.356 133.999 524.317 133.808 525.402 133.808C526.414 133.808 527.294 133.991 528.042 134.358C528.805 134.71 529.399 135.216 529.824 135.876C530.264 136.536 530.513 137.328 530.572 138.252H528.394C528.335 137.46 528.042 136.844 527.514 136.404C526.986 135.964 526.275 135.744 525.38 135.744C524.383 135.744 523.583 135.979 522.982 136.448C522.381 136.903 522.08 137.526 522.08 138.318C522.08 138.963 522.263 139.484 522.63 139.88C522.997 140.261 523.554 140.54 524.302 140.716L526.92 141.332C528.225 141.625 529.201 142.131 529.846 142.85C530.506 143.554 530.836 144.463 530.836 145.578C530.836 146.531 530.601 147.36 530.132 148.064C529.677 148.768 529.025 149.311 528.174 149.692C527.338 150.073 526.355 150.264 525.226 150.264C524.155 150.264 523.209 150.088 522.388 149.736C521.581 149.369 520.943 148.856 520.474 148.196C520.019 147.521 519.763 146.737 519.704 145.842H521.904C521.919 146.605 522.227 147.213 522.828 147.668C523.429 148.108 524.229 148.328 525.226 148.328C526.282 148.328 527.118 148.093 527.734 147.624C528.365 147.155 528.68 146.531 528.68 145.754C528.68 145.123 528.504 144.61 528.152 144.214C527.8 143.818 527.243 143.532 526.48 143.356L523.862 142.762C522.571 142.469 521.589 141.955 520.914 141.222C520.254 140.474 519.924 139.528 519.924 138.384Z" fill="#494C68" fill-opacity="0.5"/>
  <path d="M602.924 138.384C602.924 137.475 603.151 136.675 603.606 135.986C604.061 135.297 604.699 134.761 605.52 134.38C606.356 133.999 607.317 133.808 608.402 133.808C609.414 133.808 610.294 133.991 611.042 134.358C611.805 134.71 612.399 135.216 612.824 135.876C613.264 136.536 613.513 137.328 613.572 138.252H611.394C611.335 137.46 611.042 136.844 610.514 136.404C609.986 135.964 609.275 135.744 608.38 135.744C607.383 135.744 606.583 135.979 605.982 136.448C605.381 136.903 605.08 137.526 605.08 138.318C605.08 138.963 605.263 139.484 605.63 139.88C605.997 140.261 606.554 140.54 607.302 140.716L609.92 141.332C611.225 141.625 612.201 142.131 612.846 142.85C613.506 143.554 613.836 144.463 613.836 145.578C613.836 146.531 613.601 147.36 613.132 148.064C612.677 148.768 612.025 149.311 611.174 149.692C610.338 150.073 609.355 150.264 608.226 150.264C607.155 150.264 606.209 150.088 605.388 149.736C604.581 149.369 603.943 148.856 603.474 148.196C603.019 147.521 602.763 146.737 602.704 145.842H604.904C604.919 146.605 605.227 147.213 605.828 147.668C606.429 148.108 607.229 148.328 608.226 148.328C609.282 148.328 610.118 148.093 610.734 147.624C611.365 147.155 611.68 146.531 611.68 145.754C611.68 145.123 611.504 144.61 611.152 144.214C610.8 143.818 610.243 143.532 609.48 143.356L606.862 142.762C605.571 142.469 604.589 141.955 603.914 141.222C603.254 140.474 602.924 139.528 602.924 138.384Z" fill="#494C68" fill-opacity="0.5"/>
  <path d="M236 61.42L229.48 54.9C228.71 54.13 228.71 52.87 229.48 52.1L236 45.58" stroke="#494C68" stroke-opacity="0.9" stroke-width="1.5" stroke-miterlimit="10" stroke-linecap="round" stroke-linejoin="round"/>
  <path d="M293.398 64H287.184V45.202H293.294C295.166 45.202 296.804 45.6007 298.208 46.398C299.629 47.178 300.73 48.2787 301.51 49.7C302.307 51.104 302.706 52.742 302.706 54.614C302.706 56.4687 302.316 58.1067 301.536 59.528C300.756 60.932 299.664 62.0327 298.26 62.83C296.873 63.61 295.253 64 293.398 64ZM289.732 46.398V62.83L288.536 61.634H293.216C294.62 61.634 295.825 61.348 296.83 60.776C297.853 60.204 298.641 59.398 299.196 58.358C299.768 57.3007 300.054 56.0527 300.054 54.614C300.054 53.158 299.768 51.9013 299.196 50.844C298.641 49.7867 297.844 48.972 296.804 48.4C295.781 47.828 294.551 47.542 293.112 47.542H288.536L289.732 46.398ZM311.018 64.312C309.787 64.312 308.695 64.0347 307.742 63.48C306.788 62.908 306.043 62.128 305.506 61.14C304.968 60.1347 304.7 58.9733 304.7 57.656C304.7 56.3213 304.96 55.1513 305.48 54.146C306.017 53.1407 306.745 52.352 307.664 51.78C308.6 51.208 309.683 50.922 310.914 50.922C312.127 50.922 313.176 51.182 314.06 51.702C314.961 52.222 315.654 52.95 316.14 53.886C316.642 54.822 316.894 55.9227 316.894 57.188V58.098L306 58.124L306.052 56.486H314.45C314.45 55.4287 314.129 54.5793 313.488 53.938C312.846 53.2967 311.988 52.976 310.914 52.976C310.099 52.976 309.397 53.158 308.808 53.522C308.236 53.8687 307.794 54.3887 307.482 55.082C307.187 55.758 307.04 56.5727 307.04 57.526C307.04 59.0513 307.386 60.23 308.08 61.062C308.773 61.8767 309.77 62.284 311.07 62.284C312.023 62.284 312.803 62.0933 313.41 61.712C314.016 61.3307 314.424 60.776 314.632 60.048H316.92C316.608 61.4 315.94 62.4487 314.918 63.194C313.895 63.9393 312.595 64.312 311.018 64.312ZM318.791 57.656C318.791 56.3213 319.051 55.1513 319.571 54.146C320.109 53.1407 320.845 52.352 321.781 51.78C322.717 51.208 323.801 50.922 325.031 50.922C326.626 50.922 327.952 51.3467 329.009 52.196C330.067 53.0453 330.699 54.172 330.907 55.576H328.463C328.255 54.7613 327.848 54.146 327.241 53.73C326.635 53.314 325.924 53.106 325.109 53.106C324.347 53.106 323.671 53.2967 323.081 53.678C322.492 54.042 322.033 54.562 321.703 55.238C321.374 55.914 321.209 56.7113 321.209 57.63C321.209 58.5487 321.365 59.346 321.677 60.022C321.989 60.6807 322.431 61.2007 323.003 61.582C323.575 61.946 324.243 62.128 325.005 62.128C325.872 62.128 326.617 61.9113 327.241 61.478C327.865 61.0447 328.281 60.4553 328.489 59.71H330.933C330.777 60.6287 330.422 61.4347 329.867 62.128C329.33 62.804 328.637 63.3413 327.787 63.74C326.955 64.1213 326.028 64.312 325.005 64.312C323.757 64.312 322.665 64.0347 321.729 63.48C320.811 62.9253 320.091 62.154 319.571 61.166C319.051 60.1607 318.791 58.9907 318.791 57.656ZM338.998 64.312C337.767 64.312 336.675 64.0347 335.722 63.48C334.769 62.908 334.023 62.128 333.486 61.14C332.949 60.1347 332.68 58.9733 332.68 57.656C332.68 56.3213 332.94 55.1513 333.46 54.146C333.997 53.1407 334.725 52.352 335.644 51.78C336.58 51.208 337.663 50.922 338.894 50.922C340.107 50.922 341.156 51.182 342.04 51.702C342.941 52.222 343.635 52.95 344.12 53.886C344.623 54.822 344.874 55.9227 344.874 57.188V58.098L333.98 58.124L334.032 56.486H342.43C342.43 55.4287 342.109 54.5793 341.468 53.938C340.827 53.2967 339.969 52.976 338.894 52.976C338.079 52.976 337.377 53.158 336.788 53.522C336.216 53.8687 335.774 54.3887 335.462 55.082C335.167 55.758 335.02 56.5727 335.02 57.526C335.02 59.0513 335.367 60.23 336.06 61.062C336.753 61.8767 337.75 62.284 339.05 62.284C340.003 62.284 340.783 62.0933 341.39 61.712C341.997 61.3307 342.404 60.776 342.612 60.048H344.9C344.588 61.4 343.921 62.4487 342.898 63.194C341.875 63.9393 340.575 64.312 338.998 64.312ZM350.048 64H347.604V51.286H349.788L350.126 53.626L349.814 53.418C350.074 52.7073 350.551 52.118 351.244 51.65C351.955 51.1647 352.813 50.922 353.818 50.922C354.945 50.922 355.881 51.2253 356.626 51.832C357.371 52.4387 357.857 53.2447 358.082 54.25H357.64C357.813 53.2447 358.29 52.4387 359.07 51.832C359.85 51.2253 360.812 50.922 361.956 50.922C363.412 50.922 364.556 51.3467 365.388 52.196C366.22 53.0453 366.636 54.2067 366.636 55.68V64H364.244V56.278C364.244 55.2727 363.984 54.5013 363.464 53.964C362.961 53.4093 362.277 53.132 361.41 53.132C360.803 53.132 360.266 53.2707 359.798 53.548C359.347 53.808 358.992 54.1893 358.732 54.692C358.472 55.1947 358.342 55.784 358.342 56.46V64H355.924V56.252C355.924 55.2467 355.673 54.484 355.17 53.964C354.667 53.4267 353.983 53.158 353.116 53.158C352.509 53.158 351.972 53.2967 351.504 53.574C351.053 53.834 350.698 54.2153 350.438 54.718C350.178 55.2033 350.048 55.784 350.048 56.46V64ZM372.234 64H370.024V44.864H372.468V53.47C372.884 52.638 373.499 52.0053 374.314 51.572C375.129 51.1387 376.056 50.922 377.096 50.922C378.309 50.922 379.349 51.2167 380.216 51.806C381.083 52.378 381.75 53.1753 382.218 54.198C382.686 55.2207 382.92 56.3907 382.92 57.708C382.92 58.9733 382.677 60.1087 382.192 61.114C381.707 62.1193 381.013 62.908 380.112 63.48C379.228 64.0347 378.171 64.312 376.94 64.312C375.952 64.312 375.051 64.0867 374.236 63.636C373.439 63.1853 372.832 62.5353 372.416 61.686L372.234 64ZM372.494 57.604C372.494 58.488 372.65 59.268 372.962 59.944C373.291 60.62 373.751 61.1487 374.34 61.53C374.947 61.9113 375.666 62.102 376.498 62.102C377.33 62.102 378.041 61.9113 378.63 61.53C379.219 61.1487 379.67 60.62 379.982 59.944C380.311 59.268 380.476 58.488 380.476 57.604C380.476 56.7373 380.311 55.9747 379.982 55.316C379.67 54.64 379.219 54.1113 378.63 53.73C378.041 53.3313 377.33 53.132 376.498 53.132C375.666 53.132 374.947 53.3227 374.34 53.704C373.751 54.0853 373.291 54.614 372.962 55.29C372.65 55.9487 372.494 56.72 372.494 57.604ZM391.1 64.312C389.869 64.312 388.777 64.0347 387.824 63.48C386.87 62.908 386.125 62.128 385.588 61.14C385.05 60.1347 384.782 58.9733 384.782 57.656C384.782 56.3213 385.042 55.1513 385.562 54.146C386.099 53.1407 386.827 52.352 387.746 51.78C388.682 51.208 389.765 50.922 390.996 50.922C392.209 50.922 393.258 51.182 394.142 51.702C395.043 52.222 395.736 52.95 396.222 53.886C396.724 54.822 396.976 55.9227 396.976 57.188V58.098L386.082 58.124L386.134 56.486H394.532C394.532 55.4287 394.211 54.5793 393.57 53.938C392.928 53.2967 392.07 52.976 390.996 52.976C390.181 52.976 389.479 53.158 388.89 53.522C388.318 53.8687 387.876 54.3887 387.564 55.082C387.269 55.758 387.122 56.5727 387.122 57.526C387.122 59.0513 387.468 60.23 388.162 61.062C388.855 61.8767 389.852 62.284 391.152 62.284C392.105 62.284 392.885 62.0933 393.492 61.712C394.098 61.3307 394.506 60.776 394.714 60.048H397.002C396.69 61.4 396.022 62.4487 395 63.194C393.977 63.9393 392.677 64.312 391.1 64.312ZM406.986 51.182V53.418H405.894C404.732 53.418 403.814 53.756 403.138 54.432C402.479 55.0907 402.15 56.0353 402.15 57.266V64H399.706V51.312H401.994L402.202 53.86H401.968C402.141 53.028 402.557 52.352 403.216 51.832C403.874 51.2947 404.698 51.026 405.686 51.026C405.911 51.026 406.119 51.0433 406.31 51.078C406.518 51.0953 406.743 51.13 406.986 51.182Z" fill="#494C68" fill-opacity="0.9"/>
  <path d="M457 45.58L463.52 52.1C464.29 52.87 464.29 54.13 463.52 54.9L457 61.42" stroke="#494C68" stroke-opacity="0.9" stroke-width="1.5" stroke-miterlimit="10" stroke-linecap="round" stroke-linejoin="round"/>
  <path d="M94.862 200.99H90.91V198.702H97.306V217.5H94.862V200.99Z" fill="#494C68" fill-opacity="0.9"/>
  <path d="M187.384 217.474L174.696 217.5V215.55L180.754 210.324C181.517 209.683 182.149 209.102 182.652 208.582C183.155 208.062 183.553 207.585 183.848 207.152C184.143 206.701 184.351 206.259 184.472 205.826C184.593 205.393 184.654 204.925 184.654 204.422C184.654 203.243 184.333 202.325 183.692 201.666C183.068 200.99 182.184 200.652 181.04 200.652C179.879 200.652 178.943 201.051 178.232 201.848C177.539 202.628 177.183 203.685 177.166 205.02H174.618C174.653 203.685 174.939 202.515 175.476 201.51C176.013 200.505 176.759 199.733 177.712 199.196C178.683 198.641 179.801 198.364 181.066 198.364C182.331 198.364 183.423 198.607 184.342 199.092C185.261 199.577 185.971 200.262 186.474 201.146C186.994 202.013 187.254 203.053 187.254 204.266C187.254 204.925 187.167 205.557 186.994 206.164C186.821 206.753 186.543 207.343 186.162 207.932C185.798 208.504 185.321 209.102 184.732 209.726C184.143 210.333 183.432 211 182.6 211.728L177.686 215.992L176.828 215.108H187.384V217.474Z" fill="#494C68" fill-opacity="0.9"/>
  <path d="M272.838 200.756L265.948 207.334L264.284 206.086L270.94 199.69L270.81 200.964H261.164V198.702H272.838V200.756ZM266.156 207.776H264.284V206.086C264.579 205.895 264.943 205.774 265.376 205.722C265.827 205.653 266.26 205.618 266.676 205.618C267.595 205.618 268.453 205.757 269.25 206.034C270.047 206.294 270.749 206.684 271.356 207.204C271.98 207.724 272.457 208.357 272.786 209.102C273.133 209.83 273.306 210.662 273.306 211.598C273.306 212.863 273.011 213.964 272.422 214.9C271.85 215.836 271.053 216.555 270.03 217.058C269.025 217.561 267.889 217.812 266.624 217.812C265.393 217.812 264.301 217.569 263.348 217.084C262.395 216.599 261.641 215.897 261.086 214.978C260.549 214.042 260.28 212.933 260.28 211.65H262.802C262.802 212.863 263.149 213.817 263.842 214.51C264.553 215.186 265.497 215.524 266.676 215.524C267.889 215.524 268.86 215.16 269.588 214.432C270.333 213.704 270.706 212.742 270.706 211.546C270.706 210.419 270.325 209.509 269.562 208.816C268.799 208.123 267.664 207.776 266.156 207.776Z" fill="#494C68" fill-opacity="0.9"/>
  <path d="M357.552 198.702V217.5H355.108V198.702H357.552ZM345.384 211.442L354.25 198.702H356.98L348.036 211.598L345.384 211.442ZM359.788 213.704H345.384V211.442H359.788V213.704Z" fill="#494C68" fill-opacity="0.9"/>
  <path d="M438.592 217.812C437.309 217.812 436.191 217.561 435.238 217.058C434.302 216.538 433.565 215.819 433.028 214.9C432.508 213.964 432.248 212.872 432.248 211.624H434.77C434.77 212.837 435.117 213.791 435.81 214.484C436.503 215.177 437.448 215.524 438.644 215.524C439.493 215.524 440.23 215.351 440.854 215.004C441.478 214.64 441.963 214.146 442.31 213.522C442.657 212.881 442.83 212.135 442.83 211.286C442.83 210.471 442.665 209.752 442.336 209.128C442.007 208.487 441.53 207.984 440.906 207.62C440.299 207.256 439.554 207.074 438.67 207.074C437.89 207.074 437.153 207.247 436.46 207.594C435.767 207.923 435.203 208.357 434.77 208.894L432.612 208.348L434.9 198.702H444.312V201.042H435.836L437.006 200.002L435.264 206.996L434.406 207.178C434.891 206.433 435.55 205.869 436.382 205.488C437.214 205.089 438.133 204.89 439.138 204.89C440.421 204.89 441.53 205.167 442.466 205.722C443.402 206.259 444.13 207.005 444.65 207.958C445.17 208.911 445.43 209.986 445.43 211.182C445.43 212.482 445.135 213.635 444.546 214.64C443.974 215.628 443.177 216.408 442.154 216.98C441.149 217.535 439.961 217.812 438.592 217.812Z" fill="#494C68" fill-opacity="0.9"/>
  <path d="M520.666 204.656L525.06 198.702H528.024L522.642 205.852L522.07 205.67C522.573 205.289 523.093 205.011 523.63 204.838C524.185 204.647 524.739 204.552 525.294 204.552C526.594 204.552 527.729 204.838 528.7 205.41C529.688 205.965 530.451 206.736 530.988 207.724C531.543 208.712 531.82 209.83 531.82 211.078C531.82 212.395 531.517 213.565 530.91 214.588C530.321 215.593 529.506 216.382 528.466 216.954C527.443 217.526 526.282 217.812 524.982 217.812C523.682 217.812 522.503 217.517 521.446 216.928C520.406 216.339 519.583 215.533 518.976 214.51C518.369 213.487 518.066 212.343 518.066 211.078C518.066 210.333 518.144 209.639 518.3 208.998C518.473 208.357 518.751 207.689 519.132 206.996C519.513 206.303 520.025 205.523 520.666 204.656ZM520.666 211.104C520.666 211.971 520.848 212.742 521.212 213.418C521.576 214.077 522.079 214.597 522.72 214.978C523.379 215.342 524.133 215.524 524.982 215.524C525.814 215.524 526.551 215.342 527.192 214.978C527.833 214.597 528.336 214.077 528.7 213.418C529.064 212.742 529.246 211.971 529.246 211.104C529.246 210.237 529.064 209.475 528.7 208.816C528.336 208.157 527.833 207.646 527.192 207.282C526.551 206.901 525.814 206.71 524.982 206.71C524.133 206.71 523.379 206.901 522.72 207.282C522.079 207.646 521.576 208.157 521.212 208.816C520.848 209.475 520.666 210.237 520.666 211.104Z" fill="#494C68" fill-opacity="0.9"/>
  <path d="M604.208 198.702H617.338V201.042H604.208V198.702ZM615.362 199.69L617.338 201.042L610.214 217.5H607.562L615.362 199.69Z" fill="#494C68" fill-opacity="0.9"/>
  <path d="M87.722 280.274C87.722 278.991 88.112 277.891 88.892 276.972C89.672 276.036 90.712 275.447 92.012 275.204L92.038 275.75C90.8767 275.438 89.9753 274.901 89.334 274.138C88.71 273.358 88.398 272.413 88.398 271.304C88.398 270.316 88.658 269.458 89.178 268.73C89.698 267.985 90.426 267.404 91.362 266.988C92.3153 266.572 93.416 266.364 94.664 266.364C95.8947 266.364 96.9693 266.572 97.888 266.988C98.824 267.404 99.552 267.985 100.072 268.73C100.592 269.475 100.852 270.342 100.852 271.33C100.852 272.439 100.531 273.384 99.89 274.164C99.266 274.927 98.3733 275.447 97.212 275.724L97.186 275.23C98.0527 275.351 98.8153 275.655 99.474 276.14C100.133 276.608 100.644 277.197 101.008 277.908C101.372 278.619 101.554 279.416 101.554 280.3C101.554 281.392 101.259 282.354 100.67 283.186C100.098 284.018 99.292 284.668 98.252 285.136C97.2293 285.587 96.0247 285.812 94.638 285.812C93.2513 285.812 92.038 285.587 90.998 285.136C89.958 284.668 89.152 284.018 88.58 283.186C88.008 282.354 87.722 281.383 87.722 280.274ZM90.218 280.092C90.218 280.785 90.4 281.392 90.764 281.912C91.128 282.432 91.6393 282.839 92.298 283.134C92.974 283.411 93.754 283.55 94.638 283.55C95.522 283.55 96.2933 283.411 96.952 283.134C97.6107 282.839 98.122 282.432 98.486 281.912C98.85 281.392 99.032 280.785 99.032 280.092C99.032 279.052 98.6333 278.229 97.836 277.622C97.0387 276.998 95.964 276.686 94.612 276.686C93.2773 276.686 92.2113 276.998 91.414 277.622C90.6167 278.229 90.218 279.052 90.218 280.092ZM90.738 271.46C90.738 272.379 91.0847 273.115 91.778 273.67C92.4887 274.225 93.4333 274.502 94.612 274.502C95.7907 274.502 96.7267 274.233 97.42 273.696C98.1133 273.141 98.46 272.413 98.46 271.512C98.46 270.611 98.1133 269.9 97.42 269.38C96.7267 268.843 95.7907 268.574 94.612 268.574C93.4333 268.574 92.4887 268.843 91.778 269.38C91.0847 269.9 90.738 270.593 90.738 271.46Z" fill="#494C68" fill-opacity="0.9"/>
  <path d="M185.22 279.546L180.826 285.5H177.862L183.244 278.35L183.816 278.532C183.313 278.896 182.785 279.173 182.23 279.364C181.693 279.555 181.147 279.65 180.592 279.65C179.292 279.65 178.148 279.364 177.16 278.792C176.189 278.22 175.427 277.44 174.872 276.452C174.335 275.464 174.066 274.346 174.066 273.098C174.066 271.798 174.361 270.645 174.95 269.64C175.557 268.617 176.371 267.82 177.394 267.248C178.434 266.659 179.604 266.364 180.904 266.364C182.204 266.364 183.374 266.667 184.414 267.274C185.471 267.863 186.303 268.669 186.91 269.692C187.517 270.697 187.82 271.841 187.82 273.124C187.82 273.852 187.733 274.545 187.56 275.204C187.404 275.845 187.135 276.513 186.754 277.206C186.373 277.882 185.861 278.662 185.22 279.546ZM185.22 273.098C185.22 272.231 185.038 271.469 184.674 270.81C184.31 270.134 183.799 269.605 183.14 269.224C182.499 268.843 181.753 268.652 180.904 268.652C180.072 268.652 179.335 268.843 178.694 269.224C178.053 269.605 177.55 270.134 177.186 270.81C176.822 271.469 176.64 272.231 176.64 273.098C176.64 273.947 176.822 274.71 177.186 275.386C177.55 276.045 178.053 276.565 178.694 276.946C179.335 277.31 180.072 277.492 180.904 277.492C181.753 277.492 182.499 277.31 183.14 276.946C183.799 276.565 184.31 276.045 184.674 275.386C185.038 274.71 185.22 273.947 185.22 273.098Z" fill="#494C68" fill-opacity="0.9"/>
  <path d="M257.862 268.99H253.91V266.702H260.306V285.5H257.862V268.99ZM263.745 276.114C263.745 274.173 264.057 272.474 264.681 271.018C265.322 269.545 266.223 268.401 267.385 267.586C268.546 266.754 269.915 266.338 271.493 266.338C273.07 266.338 274.431 266.754 275.575 267.586C276.736 268.401 277.629 269.545 278.253 271.018C278.894 272.474 279.215 274.173 279.215 276.114C279.215 278.073 278.903 279.78 278.279 281.236C277.672 282.692 276.788 283.827 275.627 284.642C274.483 285.439 273.105 285.838 271.493 285.838C269.881 285.838 268.494 285.439 267.333 284.642C266.171 283.827 265.279 282.692 264.655 281.236C264.048 279.78 263.745 278.073 263.745 276.114ZM266.267 276.114C266.267 277.657 266.475 278.991 266.891 280.118C267.307 281.227 267.896 282.077 268.659 282.666C269.439 283.255 270.383 283.55 271.493 283.55C272.585 283.55 273.521 283.255 274.301 282.666C275.081 282.077 275.67 281.227 276.069 280.118C276.485 278.991 276.693 277.657 276.693 276.114C276.693 274.554 276.485 273.219 276.069 272.11C275.67 270.983 275.081 270.125 274.301 269.536C273.521 268.929 272.585 268.626 271.493 268.626C270.383 268.626 269.439 268.929 268.659 269.536C267.896 270.125 267.307 270.983 266.891 272.11C266.475 273.219 266.267 274.554 266.267 276.114Z" fill="#494C68" fill-opacity="0.9"/>
  <path d="M348.362 268.99H344.41V266.702H350.806V285.5H348.362V268.99ZM357.604 268.99H353.652V266.702H360.048V285.5H357.604V268.99Z" fill="#494C68" fill-opacity="0.9"/>
  <path d="M431.362 268.99H427.41V266.702H433.806V285.5H431.362V268.99ZM449.855 285.474L437.167 285.5V283.55L443.225 278.324C443.987 277.683 444.62 277.102 445.123 276.582C445.625 276.062 446.024 275.585 446.319 275.152C446.613 274.701 446.821 274.259 446.943 273.826C447.064 273.393 447.125 272.925 447.125 272.422C447.125 271.243 446.804 270.325 446.163 269.666C445.539 268.99 444.655 268.652 443.511 268.652C442.349 268.652 441.413 269.051 440.703 269.848C440.009 270.628 439.654 271.685 439.637 273.02H437.089C437.123 271.685 437.409 270.515 437.947 269.51C438.484 268.505 439.229 267.733 440.183 267.196C441.153 266.641 442.271 266.364 443.537 266.364C444.802 266.364 445.894 266.607 446.813 267.092C447.731 267.577 448.442 268.262 448.945 269.146C449.465 270.013 449.725 271.053 449.725 272.266C449.725 272.925 449.638 273.557 449.465 274.164C449.291 274.753 449.014 275.343 448.633 275.932C448.269 276.504 447.792 277.102 447.203 277.726C446.613 278.333 445.903 279 445.071 279.728L440.157 283.992L439.299 283.108H449.855V285.474Z" fill="#494C68" fill-opacity="0.9"/>
  <path d="M517.362 268.99H513.41V266.702H519.806V285.5H517.362V268.99ZM535.309 268.756L528.419 275.334L526.755 274.086L533.411 267.69L533.281 268.964H523.635V266.702H535.309V268.756ZM528.627 275.776H526.755V274.086C527.049 273.895 527.413 273.774 527.847 273.722C528.297 273.653 528.731 273.618 529.147 273.618C530.065 273.618 530.923 273.757 531.721 274.034C532.518 274.294 533.22 274.684 533.827 275.204C534.451 275.724 534.927 276.357 535.257 277.102C535.603 277.83 535.777 278.662 535.777 279.598C535.777 280.863 535.482 281.964 534.893 282.9C534.321 283.836 533.523 284.555 532.501 285.058C531.495 285.561 530.36 285.812 529.095 285.812C527.864 285.812 526.772 285.569 525.819 285.084C524.865 284.599 524.111 283.897 523.557 282.978C523.019 282.042 522.751 280.933 522.751 279.65H525.273C525.273 280.863 525.619 281.817 526.313 282.51C527.023 283.186 527.968 283.524 529.147 283.524C530.36 283.524 531.331 283.16 532.059 282.432C532.804 281.704 533.177 280.742 533.177 279.546C533.177 278.419 532.795 277.509 532.033 276.816C531.27 276.123 530.135 275.776 528.627 275.776Z" fill="#494C68" fill-opacity="0.9"/>
  <path d="M602.862 268.99H598.91V266.702H605.306V285.5H602.862V268.99ZM620.523 266.702V285.5H618.079V266.702H620.523ZM608.355 279.442L617.221 266.702H619.951L611.007 279.598L608.355 279.442ZM622.759 281.704H608.355V279.442H622.759V281.704Z" fill="#494C68" fill-opacity="0.9"/>
  <path d="M87.362 336.99H83.41V334.702H89.806V353.5H87.362V336.99ZM99.4611 353.812C98.1785 353.812 97.0605 353.561 96.1071 353.058C95.1711 352.538 94.4345 351.819 93.8971 350.9C93.3771 349.964 93.1171 348.872 93.1171 347.624H95.6391C95.6391 348.837 95.9858 349.791 96.6791 350.484C97.3725 351.177 98.3171 351.524 99.5131 351.524C100.362 351.524 101.099 351.351 101.723 351.004C102.347 350.64 102.832 350.146 103.179 349.522C103.526 348.881 103.699 348.135 103.699 347.286C103.699 346.471 103.534 345.752 103.205 345.128C102.876 344.487 102.399 343.984 101.775 343.62C101.168 343.256 100.423 343.074 99.5391 343.074C98.7591 343.074 98.0225 343.247 97.3291 343.594C96.6358 343.923 96.0725 344.357 95.6391 344.894L93.4811 344.348L95.7691 334.702H105.181V337.042H96.7051L97.8751 336.002L96.1331 342.996L95.2751 343.178C95.7605 342.433 96.4191 341.869 97.2511 341.488C98.0831 341.089 99.0018 340.89 100.007 340.89C101.29 340.89 102.399 341.167 103.335 341.722C104.271 342.259 104.999 343.005 105.519 343.958C106.039 344.911 106.299 345.986 106.299 347.182C106.299 348.482 106.004 349.635 105.415 350.64C104.843 351.628 104.046 352.408 103.023 352.98C102.018 353.535 100.83 353.812 99.4611 353.812Z" fill="#494C68" fill-opacity="0.9"/>
  <path d="M172.862 336.99H168.91V334.702H175.306V353.5H172.862V336.99ZM181.137 340.656L185.531 334.702H188.495L183.113 341.852L182.541 341.67C183.043 341.289 183.563 341.011 184.101 340.838C184.655 340.647 185.21 340.552 185.765 340.552C187.065 340.552 188.2 340.838 189.171 341.41C190.159 341.965 190.921 342.736 191.459 343.724C192.013 344.712 192.291 345.83 192.291 347.078C192.291 348.395 191.987 349.565 191.381 350.588C190.791 351.593 189.977 352.382 188.937 352.954C187.914 353.526 186.753 353.812 185.453 353.812C184.153 353.812 182.974 353.517 181.917 352.928C180.877 352.339 180.053 351.533 179.447 350.51C178.84 349.487 178.537 348.343 178.537 347.078C178.537 346.333 178.615 345.639 178.771 344.998C178.944 344.357 179.221 343.689 179.603 342.996C179.984 342.303 180.495 341.523 181.137 340.656ZM181.137 347.104C181.137 347.971 181.319 348.742 181.683 349.418C182.047 350.077 182.549 350.597 183.191 350.978C183.849 351.342 184.603 351.524 185.453 351.524C186.285 351.524 187.021 351.342 187.663 350.978C188.304 350.597 188.807 350.077 189.171 349.418C189.535 348.742 189.717 347.971 189.717 347.104C189.717 346.237 189.535 345.475 189.171 344.816C188.807 344.157 188.304 343.646 187.663 343.282C187.021 342.901 186.285 342.71 185.453 342.71C184.603 342.71 183.849 342.901 183.191 343.282C182.549 343.646 182.047 344.157 181.683 344.816C181.319 345.475 181.137 346.237 181.137 347.104Z" fill="#494C68" fill-opacity="0.9"/>
  <path d="M259.862 336.99H255.91V334.702H262.306V353.5H259.862V336.99ZM265.11 334.702H278.24V337.042H265.11V334.702ZM276.264 335.69L278.24 337.042L271.116 353.5H268.464L276.264 335.69Z" fill="#494C68" fill-opacity="0.9"/>
  <path d="M344.862 336.99H340.91V334.702H347.306V353.5H344.862V336.99ZM350.591 348.274C350.591 346.991 350.981 345.891 351.761 344.972C352.541 344.036 353.581 343.447 354.881 343.204L354.907 343.75C353.746 343.438 352.844 342.901 352.203 342.138C351.579 341.358 351.267 340.413 351.267 339.304C351.267 338.316 351.527 337.458 352.047 336.73C352.567 335.985 353.295 335.404 354.231 334.988C355.184 334.572 356.285 334.364 357.533 334.364C358.764 334.364 359.838 334.572 360.757 334.988C361.693 335.404 362.421 335.985 362.941 336.73C363.461 337.475 363.721 338.342 363.721 339.33C363.721 340.439 363.4 341.384 362.759 342.164C362.135 342.927 361.242 343.447 360.081 343.724L360.055 343.23C360.922 343.351 361.684 343.655 362.343 344.14C363.002 344.608 363.513 345.197 363.877 345.908C364.241 346.619 364.423 347.416 364.423 348.3C364.423 349.392 364.128 350.354 363.539 351.186C362.967 352.018 362.161 352.668 361.121 353.136C360.098 353.587 358.894 353.812 357.507 353.812C356.12 353.812 354.907 353.587 353.867 353.136C352.827 352.668 352.021 352.018 351.449 351.186C350.877 350.354 350.591 349.383 350.591 348.274ZM353.087 348.092C353.087 348.785 353.269 349.392 353.633 349.912C353.997 350.432 354.508 350.839 355.167 351.134C355.843 351.411 356.623 351.55 357.507 351.55C358.391 351.55 359.162 351.411 359.821 351.134C360.48 350.839 360.991 350.432 361.355 349.912C361.719 349.392 361.901 348.785 361.901 348.092C361.901 347.052 361.502 346.229 360.705 345.622C359.908 344.998 358.833 344.686 357.481 344.686C356.146 344.686 355.08 344.998 354.283 345.622C353.486 346.229 353.087 347.052 353.087 348.092ZM353.607 339.46C353.607 340.379 353.954 341.115 354.647 341.67C355.358 342.225 356.302 342.502 357.481 342.502C358.66 342.502 359.596 342.233 360.289 341.696C360.982 341.141 361.329 340.413 361.329 339.512C361.329 338.611 360.982 337.9 360.289 337.38C359.596 336.843 358.66 336.574 357.481 336.574C356.302 336.574 355.358 336.843 354.647 337.38C353.954 337.9 353.607 338.593 353.607 339.46Z" fill="#494C68" fill-opacity="0.9"/>
  <path d="M430.862 336.99H426.91V334.702H433.306V353.5H430.862V336.99ZM447.691 347.546L443.297 353.5H440.333L445.715 346.35L446.287 346.532C445.784 346.896 445.255 347.173 444.701 347.364C444.163 347.555 443.617 347.65 443.063 347.65C441.763 347.65 440.619 347.364 439.631 346.792C438.66 346.22 437.897 345.44 437.343 344.452C436.805 343.464 436.537 342.346 436.537 341.098C436.537 339.798 436.831 338.645 437.421 337.64C438.027 336.617 438.842 335.82 439.865 335.248C440.905 334.659 442.075 334.364 443.375 334.364C444.675 334.364 445.845 334.667 446.885 335.274C447.942 335.863 448.774 336.669 449.381 337.692C449.987 338.697 450.291 339.841 450.291 341.124C450.291 341.852 450.204 342.545 450.031 343.204C449.875 343.845 449.606 344.513 449.225 345.206C448.843 345.882 448.332 346.662 447.691 347.546ZM447.691 341.098C447.691 340.231 447.509 339.469 447.145 338.81C446.781 338.134 446.269 337.605 445.611 337.224C444.969 336.843 444.224 336.652 443.375 336.652C442.543 336.652 441.806 336.843 441.165 337.224C440.523 337.605 440.021 338.134 439.657 338.81C439.293 339.469 439.111 340.231 439.111 341.098C439.111 341.947 439.293 342.71 439.657 343.386C440.021 344.045 440.523 344.565 441.165 344.946C441.806 345.31 442.543 345.492 443.375 345.492C444.224 345.492 444.969 345.31 445.611 344.946C446.269 344.565 446.781 344.045 447.145 343.386C447.509 342.71 447.691 341.947 447.691 341.098Z" fill="#494C68" fill-opacity="0.9"/>
  <path d="M522.384 353.474L509.696 353.5V351.55L515.754 346.324C516.517 345.683 517.149 345.102 517.652 344.582C518.155 344.062 518.553 343.585 518.848 343.152C519.143 342.701 519.351 342.259 519.472 341.826C519.593 341.393 519.654 340.925 519.654 340.422C519.654 339.243 519.333 338.325 518.692 337.666C518.068 336.99 517.184 336.652 516.04 336.652C514.879 336.652 513.943 337.051 513.232 337.848C512.539 338.628 512.183 339.685 512.166 341.02H509.618C509.653 339.685 509.939 338.515 510.476 337.51C511.013 336.505 511.759 335.733 512.712 335.196C513.683 334.641 514.801 334.364 516.066 334.364C517.331 334.364 518.423 334.607 519.342 335.092C520.261 335.577 520.971 336.262 521.474 337.146C521.994 338.013 522.254 339.053 522.254 340.266C522.254 340.925 522.167 341.557 521.994 342.164C521.821 342.753 521.543 343.343 521.162 343.932C520.798 344.504 520.321 345.102 519.732 345.726C519.143 346.333 518.432 347 517.6 347.728L512.686 351.992L511.828 351.108H522.384V353.474ZM524.729 344.114C524.729 342.173 525.041 340.474 525.665 339.018C526.306 337.545 527.208 336.401 528.369 335.586C529.53 334.754 530.9 334.338 532.477 334.338C534.054 334.338 535.415 334.754 536.559 335.586C537.72 336.401 538.613 337.545 539.237 339.018C539.878 340.474 540.199 342.173 540.199 344.114C540.199 346.073 539.887 347.78 539.263 349.236C538.656 350.692 537.772 351.827 536.611 352.642C535.467 353.439 534.089 353.838 532.477 353.838C530.865 353.838 529.478 353.439 528.317 352.642C527.156 351.827 526.263 350.692 525.639 349.236C525.032 347.78 524.729 346.073 524.729 344.114ZM527.251 344.114C527.251 345.657 527.459 346.991 527.875 348.118C528.291 349.227 528.88 350.077 529.643 350.666C530.423 351.255 531.368 351.55 532.477 351.55C533.569 351.55 534.505 351.255 535.285 350.666C536.065 350.077 536.654 349.227 537.053 348.118C537.469 346.991 537.677 345.657 537.677 344.114C537.677 342.554 537.469 341.219 537.053 340.11C536.654 338.983 536.065 338.125 535.285 337.536C534.505 336.929 533.569 336.626 532.477 336.626C531.368 336.626 530.423 336.929 529.643 337.536C528.88 338.125 528.291 338.983 527.875 340.11C527.459 341.219 527.251 342.554 527.251 344.114Z" fill="#494C68" fill-opacity="0.9"/>
  <path d="M612.384 353.474L599.696 353.5V351.55L605.754 346.324C606.517 345.683 607.149 345.102 607.652 344.582C608.155 344.062 608.553 343.585 608.848 343.152C609.143 342.701 609.351 342.259 609.472 341.826C609.593 341.393 609.654 340.925 609.654 340.422C609.654 339.243 609.333 338.325 608.692 337.666C608.068 336.99 607.184 336.652 606.04 336.652C604.879 336.652 603.943 337.051 603.232 337.848C602.539 338.628 602.183 339.685 602.166 341.02H599.618C599.653 339.685 599.939 338.515 600.476 337.51C601.013 336.505 601.759 335.733 602.712 335.196C603.683 334.641 604.801 334.364 606.066 334.364C607.331 334.364 608.423 334.607 609.342 335.092C610.261 335.577 610.971 336.262 611.474 337.146C611.994 338.013 612.254 339.053 612.254 340.266C612.254 340.925 612.167 341.557 611.994 342.164C611.821 342.753 611.543 343.343 611.162 343.932C610.798 344.504 610.321 345.102 609.732 345.726C609.143 346.333 608.432 347 607.6 347.728L602.686 351.992L601.828 351.108H612.384V353.474ZM618.419 336.99H614.467V334.702H620.863V353.5H618.419V336.99Z" fill="#494C68" fill-opacity="0.9"/>
  <path d="M93.384 421.474L80.696 421.5V419.55L86.754 414.324C87.5167 413.683 88.1493 413.102 88.652 412.582C89.1547 412.062 89.5533 411.585 89.848 411.152C90.1427 410.701 90.3507 410.259 90.472 409.826C90.5933 409.393 90.654 408.925 90.654 408.422C90.654 407.243 90.3333 406.325 89.692 405.666C89.068 404.99 88.184 404.652 87.04 404.652C85.8787 404.652 84.9427 405.051 84.232 405.848C83.5387 406.628 83.1833 407.685 83.166 409.02H80.618C80.6527 407.685 80.9387 406.515 81.476 405.51C82.0133 404.505 82.7587 403.733 83.712 403.196C84.6827 402.641 85.8007 402.364 87.066 402.364C88.3313 402.364 89.4233 402.607 90.342 403.092C91.2607 403.577 91.9713 404.262 92.474 405.146C92.994 406.013 93.254 407.053 93.254 408.266C93.254 408.925 93.1673 409.557 92.994 410.164C92.8207 410.753 92.5433 411.343 92.162 411.932C91.798 412.504 91.3213 413.102 90.732 413.726C90.1427 414.333 89.432 415 88.6 415.728L83.686 419.992L82.828 419.108H93.384V421.474ZM108.441 421.474L95.7526 421.5V419.55L101.811 414.324C102.573 413.683 103.206 413.102 103.709 412.582C104.211 412.062 104.61 411.585 104.905 411.152C105.199 410.701 105.407 410.259 105.529 409.826C105.65 409.393 105.711 408.925 105.711 408.422C105.711 407.243 105.39 406.325 104.749 405.666C104.125 404.99 103.241 404.652 102.097 404.652C100.935 404.652 99.9993 405.051 99.2886 405.848C98.5953 406.628 98.24 407.685 98.2226 409.02H95.6746C95.7093 407.685 95.9953 406.515 96.5326 405.51C97.07 404.505 97.8153 403.733 98.7686 403.196C99.7393 402.641 100.857 402.364 102.123 402.364C103.388 402.364 104.48 402.607 105.399 403.092C106.317 403.577 107.028 404.262 107.531 405.146C108.051 406.013 108.311 407.053 108.311 408.266C108.311 408.925 108.224 409.557 108.051 410.164C107.877 410.753 107.6 411.343 107.219 411.932C106.855 412.504 106.378 413.102 105.789 413.726C105.199 414.333 104.489 415 103.657 415.728L98.7426 419.992L97.8846 419.108H108.441V421.474Z" fill="#494C68" fill-opacity="0.9"/>
  <path d="M179.384 421.474L166.696 421.5V419.55L172.754 414.324C173.517 413.683 174.149 413.102 174.652 412.582C175.155 412.062 175.553 411.585 175.848 411.152C176.143 410.701 176.351 410.259 176.472 409.826C176.593 409.393 176.654 408.925 176.654 408.422C176.654 407.243 176.333 406.325 175.692 405.666C175.068 404.99 174.184 404.652 173.04 404.652C171.879 404.652 170.943 405.051 170.232 405.848C169.539 406.628 169.183 407.685 169.166 409.02H166.618C166.653 407.685 166.939 406.515 167.476 405.51C168.013 404.505 168.759 403.733 169.712 403.196C170.683 402.641 171.801 402.364 173.066 402.364C174.331 402.364 175.423 402.607 176.342 403.092C177.261 403.577 177.971 404.262 178.474 405.146C178.994 406.013 179.254 407.053 179.254 408.266C179.254 408.925 179.167 409.557 178.994 410.164C178.821 410.753 178.543 411.343 178.162 411.932C177.798 412.504 177.321 413.102 176.732 413.726C176.143 414.333 175.432 415 174.6 415.728L169.686 419.992L168.828 419.108H179.384V421.474ZM194.441 421.474L181.753 421.5V419.55L187.811 414.324C188.573 413.683 189.206 413.102 189.709 412.582C190.211 412.062 190.61 411.585 190.905 411.152C191.199 410.701 191.407 410.259 191.529 409.826C191.65 409.393 191.711 408.925 191.711 408.422C191.711 407.243 191.39 406.325 190.749 405.666C190.125 404.99 189.241 404.652 188.097 404.652C186.935 404.652 185.999 405.051 185.289 405.848C184.595 406.628 184.24 407.685 184.223 409.02H181.675C181.709 407.685 181.995 406.515 182.533 405.51C183.07 404.505 183.815 403.733 184.769 403.196C185.739 402.641 186.857 402.364 188.123 402.364C189.388 402.364 190.48 402.607 191.399 403.092C192.317 403.577 193.028 404.262 193.531 405.146C194.051 406.013 194.311 407.053 194.311 408.266C194.311 408.925 194.224 409.557 194.051 410.164C193.877 410.753 193.6 411.343 193.219 411.932C192.855 412.504 192.378 413.102 191.789 413.726C191.199 414.333 190.489 415 189.657 415.728L184.743 419.992L183.885 419.108H194.441V421.474Z" fill="#494C68" fill-opacity="0.9"/>
  <path d="M265.884 421.474L253.196 421.5V419.55L259.254 414.324C260.017 413.683 260.649 413.102 261.152 412.582C261.655 412.062 262.053 411.585 262.348 411.152C262.643 410.701 262.851 410.259 262.972 409.826C263.093 409.393 263.154 408.925 263.154 408.422C263.154 407.243 262.833 406.325 262.192 405.666C261.568 404.99 260.684 404.652 259.54 404.652C258.379 404.652 257.443 405.051 256.732 405.848C256.039 406.628 255.683 407.685 255.666 409.02H253.118C253.153 407.685 253.439 406.515 253.976 405.51C254.513 404.505 255.259 403.733 256.212 403.196C257.183 402.641 258.301 402.364 259.566 402.364C260.831 402.364 261.923 402.607 262.842 403.092C263.761 403.577 264.471 404.262 264.974 405.146C265.494 406.013 265.754 407.053 265.754 408.266C265.754 408.925 265.667 409.557 265.494 410.164C265.321 410.753 265.043 411.343 264.662 411.932C264.298 412.504 263.821 413.102 263.232 413.726C262.643 414.333 261.932 415 261.1 415.728L256.186 419.992L255.328 419.108H265.884V421.474ZM280.395 404.756L273.505 411.334L271.841 410.086L278.497 403.69L278.367 404.964H268.721V402.702H280.395V404.756ZM273.713 411.776H271.841V410.086C272.135 409.895 272.499 409.774 272.933 409.722C273.383 409.653 273.817 409.618 274.233 409.618C275.151 409.618 276.009 409.757 276.807 410.034C277.604 410.294 278.306 410.684 278.913 411.204C279.537 411.724 280.013 412.357 280.343 413.102C280.689 413.83 280.863 414.662 280.863 415.598C280.863 416.863 280.568 417.964 279.979 418.9C279.407 419.836 278.609 420.555 277.587 421.058C276.581 421.561 275.446 421.812 274.181 421.812C272.95 421.812 271.858 421.569 270.905 421.084C269.951 420.599 269.197 419.897 268.643 418.978C268.105 418.042 267.837 416.933 267.837 415.65H270.359C270.359 416.863 270.705 417.817 271.399 418.51C272.109 419.186 273.054 419.524 274.233 419.524C275.446 419.524 276.417 419.16 277.145 418.432C277.89 417.704 278.263 416.742 278.263 415.546C278.263 414.419 277.881 413.509 277.119 412.816C276.356 412.123 275.221 411.776 273.713 411.776Z" fill="#494C68" fill-opacity="0.9"/>
  <path d="M351.384 421.474L338.696 421.5V419.55L344.754 414.324C345.517 413.683 346.149 413.102 346.652 412.582C347.155 412.062 347.553 411.585 347.848 411.152C348.143 410.701 348.351 410.259 348.472 409.826C348.593 409.393 348.654 408.925 348.654 408.422C348.654 407.243 348.333 406.325 347.692 405.666C347.068 404.99 346.184 404.652 345.04 404.652C343.879 404.652 342.943 405.051 342.232 405.848C341.539 406.628 341.183 407.685 341.166 409.02H338.618C338.653 407.685 338.939 406.515 339.476 405.51C340.013 404.505 340.759 403.733 341.712 403.196C342.683 402.641 343.801 402.364 345.066 402.364C346.331 402.364 347.423 402.607 348.342 403.092C349.261 403.577 349.971 404.262 350.474 405.146C350.994 406.013 351.254 407.053 351.254 408.266C351.254 408.925 351.167 409.557 350.994 410.164C350.821 410.753 350.543 411.343 350.162 411.932C349.798 412.504 349.321 413.102 348.732 413.726C348.143 414.333 347.432 415 346.6 415.728L341.686 419.992L340.828 419.108H351.384V421.474ZM364.999 402.702V421.5H362.555V402.702H364.999ZM352.831 415.442L361.697 402.702H364.427L355.483 415.598L352.831 415.442ZM367.235 417.704H352.831V415.442H367.235V417.704Z" fill="#494C68" fill-opacity="0.9"/>
  <path d="M437.384 421.474L424.696 421.5V419.55L430.754 414.324C431.517 413.683 432.149 413.102 432.652 412.582C433.155 412.062 433.553 411.585 433.848 411.152C434.143 410.701 434.351 410.259 434.472 409.826C434.593 409.393 434.654 408.925 434.654 408.422C434.654 407.243 434.333 406.325 433.692 405.666C433.068 404.99 432.184 404.652 431.04 404.652C429.879 404.652 428.943 405.051 428.232 405.848C427.539 406.628 427.183 407.685 427.166 409.02H424.618C424.653 407.685 424.939 406.515 425.476 405.51C426.013 404.505 426.759 403.733 427.712 403.196C428.683 402.641 429.801 402.364 431.066 402.364C432.331 402.364 433.423 402.607 434.342 403.092C435.261 403.577 435.971 404.262 436.474 405.146C436.994 406.013 437.254 407.053 437.254 408.266C437.254 408.925 437.167 409.557 436.994 410.164C436.821 410.753 436.543 411.343 436.162 411.932C435.798 412.504 435.321 413.102 434.732 413.726C434.143 414.333 433.432 415 432.6 415.728L427.686 419.992L426.828 419.108H437.384V421.474ZM445.869 421.812C444.587 421.812 443.469 421.561 442.515 421.058C441.579 420.538 440.843 419.819 440.305 418.9C439.785 417.964 439.525 416.872 439.525 415.624H442.047C442.047 416.837 442.394 417.791 443.087 418.484C443.781 419.177 444.725 419.524 445.921 419.524C446.771 419.524 447.507 419.351 448.131 419.004C448.755 418.64 449.241 418.146 449.587 417.522C449.934 416.881 450.107 416.135 450.107 415.286C450.107 414.471 449.943 413.752 449.613 413.128C449.284 412.487 448.807 411.984 448.183 411.62C447.577 411.256 446.831 411.074 445.947 411.074C445.167 411.074 444.431 411.247 443.737 411.594C443.044 411.923 442.481 412.357 442.047 412.894L439.889 412.348L442.177 402.702H451.589V405.042H443.113L444.283 404.002L442.541 410.996L441.683 411.178C442.169 410.433 442.827 409.869 443.659 409.488C444.491 409.089 445.41 408.89 446.415 408.89C447.698 408.89 448.807 409.167 449.743 409.722C450.679 410.259 451.407 411.005 451.927 411.958C452.447 412.911 452.707 413.986 452.707 415.182C452.707 416.482 452.413 417.635 451.823 418.64C451.251 419.628 450.454 420.408 449.431 420.98C448.426 421.535 447.239 421.812 445.869 421.812Z" fill="#494C68" fill-opacity="0.9"/>
  <path d="M523.384 421.474L510.696 421.5V419.55L516.754 414.324C517.517 413.683 518.149 413.102 518.652 412.582C519.155 412.062 519.553 411.585 519.848 411.152C520.143 410.701 520.351 410.259 520.472 409.826C520.593 409.393 520.654 408.925 520.654 408.422C520.654 407.243 520.333 406.325 519.692 405.666C519.068 404.99 518.184 404.652 517.04 404.652C515.879 404.652 514.943 405.051 514.232 405.848C513.539 406.628 513.183 407.685 513.166 409.02H510.618C510.653 407.685 510.939 406.515 511.476 405.51C512.013 404.505 512.759 403.733 513.712 403.196C514.683 402.641 515.801 402.364 517.066 402.364C518.331 402.364 519.423 402.607 520.342 403.092C521.261 403.577 521.971 404.262 522.474 405.146C522.994 406.013 523.254 407.053 523.254 408.266C523.254 408.925 523.167 409.557 522.994 410.164C522.821 410.753 522.543 411.343 522.162 411.932C521.798 412.504 521.321 413.102 520.732 413.726C520.143 414.333 519.432 415 518.6 415.728L513.686 419.992L512.828 419.108H523.384V421.474ZM528.121 408.656L532.515 402.702H535.479L530.097 409.852L529.525 409.67C530.028 409.289 530.548 409.011 531.085 408.838C531.64 408.647 532.194 408.552 532.749 408.552C534.049 408.552 535.184 408.838 536.155 409.41C537.143 409.965 537.906 410.736 538.443 411.724C538.998 412.712 539.275 413.83 539.275 415.078C539.275 416.395 538.972 417.565 538.365 418.588C537.776 419.593 536.961 420.382 535.921 420.954C534.898 421.526 533.737 421.812 532.437 421.812C531.137 421.812 529.958 421.517 528.901 420.928C527.861 420.339 527.038 419.533 526.431 418.51C525.824 417.487 525.521 416.343 525.521 415.078C525.521 414.333 525.599 413.639 525.755 412.998C525.928 412.357 526.206 411.689 526.587 410.996C526.968 410.303 527.48 409.523 528.121 408.656ZM528.121 415.104C528.121 415.971 528.303 416.742 528.667 417.418C529.031 418.077 529.534 418.597 530.175 418.978C530.834 419.342 531.588 419.524 532.437 419.524C533.269 419.524 534.006 419.342 534.647 418.978C535.288 418.597 535.791 418.077 536.155 417.418C536.519 416.742 536.701 415.971 536.701 415.104C536.701 414.237 536.519 413.475 536.155 412.816C535.791 412.157 535.288 411.646 534.647 411.282C534.006 410.901 533.269 410.71 532.437 410.71C531.588 410.71 530.834 410.901 530.175 411.282C529.534 411.646 529.031 412.157 528.667 412.816C528.303 413.475 528.121 414.237 528.121 415.104Z" fill="#494C68" fill-opacity="0.9"/>
  <path d="M610.384 421.474L597.696 421.5V419.55L603.754 414.324C604.517 413.683 605.149 413.102 605.652 412.582C606.155 412.062 606.553 411.585 606.848 411.152C607.143 410.701 607.351 410.259 607.472 409.826C607.593 409.393 607.654 408.925 607.654 408.422C607.654 407.243 607.333 406.325 606.692 405.666C606.068 404.99 605.184 404.652 604.04 404.652C602.879 404.652 601.943 405.051 601.232 405.848C600.539 406.628 600.183 407.685 600.166 409.02H597.618C597.653 407.685 597.939 406.515 598.476 405.51C599.013 404.505 599.759 403.733 600.712 403.196C601.683 402.641 602.801 402.364 604.066 402.364C605.331 402.364 606.423 402.607 607.342 403.092C608.261 403.577 608.971 404.262 609.474 405.146C609.994 406.013 610.254 407.053 610.254 408.266C610.254 408.925 610.167 409.557 609.994 410.164C609.821 410.753 609.543 411.343 609.162 411.932C608.798 412.504 608.321 413.102 607.732 413.726C607.143 414.333 606.432 415 605.6 415.728L600.686 419.992L599.828 419.108H610.384V421.474ZM611.511 402.702H624.641V405.042H611.511V402.702ZM622.665 403.69L624.641 405.042L617.517 421.5H614.865L622.665 403.69Z" fill="#494C68" fill-opacity="0.9"/>
  <path d="M92.884 489.474L80.196 489.5V487.55L86.254 482.324C87.0167 481.683 87.6493 481.102 88.152 480.582C88.6547 480.062 89.0533 479.585 89.348 479.152C89.6427 478.701 89.8507 478.259 89.972 477.826C90.0933 477.393 90.154 476.925 90.154 476.422C90.154 475.243 89.8333 474.325 89.192 473.666C88.568 472.99 87.684 472.652 86.54 472.652C85.3787 472.652 84.4427 473.051 83.732 473.848C83.0387 474.628 82.6833 475.685 82.666 477.02H80.118C80.1527 475.685 80.4387 474.515 80.976 473.51C81.5133 472.505 82.2587 471.733 83.212 471.196C84.1827 470.641 85.3007 470.364 86.566 470.364C87.8313 470.364 88.9233 470.607 89.842 471.092C90.7607 471.577 91.4713 472.262 91.974 473.146C92.494 474.013 92.754 475.053 92.754 476.266C92.754 476.925 92.6673 477.557 92.494 478.164C92.3207 478.753 92.0433 479.343 91.662 479.932C91.298 480.504 90.8213 481.102 90.232 481.726C89.6427 482.333 88.932 483 88.1 483.728L83.186 487.992L82.328 487.108H92.884V489.474ZM95.1771 484.274C95.1771 482.991 95.5671 481.891 96.3471 480.972C97.1271 480.036 98.1671 479.447 99.4671 479.204L99.4931 479.75C98.3317 479.438 97.4304 478.901 96.7891 478.138C96.1651 477.358 95.8531 476.413 95.8531 475.304C95.8531 474.316 96.1131 473.458 96.6331 472.73C97.1531 471.985 97.8811 471.404 98.8171 470.988C99.7704 470.572 100.871 470.364 102.119 470.364C103.35 470.364 104.424 470.572 105.343 470.988C106.279 471.404 107.007 471.985 107.527 472.73C108.047 473.475 108.307 474.342 108.307 475.33C108.307 476.439 107.986 477.384 107.345 478.164C106.721 478.927 105.828 479.447 104.667 479.724L104.641 479.23C105.508 479.351 106.27 479.655 106.929 480.14C107.588 480.608 108.099 481.197 108.463 481.908C108.827 482.619 109.009 483.416 109.009 484.3C109.009 485.392 108.714 486.354 108.125 487.186C107.553 488.018 106.747 488.668 105.707 489.136C104.684 489.587 103.48 489.812 102.093 489.812C100.706 489.812 99.4931 489.587 98.4531 489.136C97.4131 488.668 96.6071 488.018 96.0351 487.186C95.4631 486.354 95.1771 485.383 95.1771 484.274ZM97.6731 484.092C97.6731 484.785 97.8551 485.392 98.2191 485.912C98.5831 486.432 99.0944 486.839 99.7531 487.134C100.429 487.411 101.209 487.55 102.093 487.55C102.977 487.55 103.748 487.411 104.407 487.134C105.066 486.839 105.577 486.432 105.941 485.912C106.305 485.392 106.487 484.785 106.487 484.092C106.487 483.052 106.088 482.229 105.291 481.622C104.494 480.998 103.419 480.686 102.067 480.686C100.732 480.686 99.6664 480.998 98.8691 481.622C98.0717 482.229 97.6731 483.052 97.6731 484.092ZM98.1931 475.46C98.1931 476.379 98.5397 477.115 99.2331 477.67C99.9437 478.225 100.888 478.502 102.067 478.502C103.246 478.502 104.182 478.233 104.875 477.696C105.568 477.141 105.915 476.413 105.915 475.512C105.915 474.611 105.568 473.9 104.875 473.38C104.182 472.843 103.246 472.574 102.067 472.574C100.888 472.574 99.9437 472.843 99.2331 473.38C98.5397 473.9 98.1931 474.593 98.1931 475.46Z" fill="#494C68" fill-opacity="0.9"/>
  <path d="M179.384 489.474L166.696 489.5V487.55L172.754 482.324C173.517 481.683 174.149 481.102 174.652 480.582C175.155 480.062 175.553 479.585 175.848 479.152C176.143 478.701 176.351 478.259 176.472 477.826C176.593 477.393 176.654 476.925 176.654 476.422C176.654 475.243 176.333 474.325 175.692 473.666C175.068 472.99 174.184 472.652 173.04 472.652C171.879 472.652 170.943 473.051 170.232 473.848C169.539 474.628 169.183 475.685 169.166 477.02H166.618C166.653 475.685 166.939 474.515 167.476 473.51C168.013 472.505 168.759 471.733 169.712 471.196C170.683 470.641 171.801 470.364 173.066 470.364C174.331 470.364 175.423 470.607 176.342 471.092C177.261 471.577 177.971 472.262 178.474 473.146C178.994 474.013 179.254 475.053 179.254 476.266C179.254 476.925 179.167 477.557 178.994 478.164C178.821 478.753 178.543 479.343 178.162 479.932C177.798 480.504 177.321 481.102 176.732 481.726C176.143 482.333 175.432 483 174.6 483.728L169.686 487.992L168.828 487.108H179.384V489.474ZM192.675 483.546L188.281 489.5H185.317L190.699 482.35L191.271 482.532C190.768 482.896 190.24 483.173 189.685 483.364C189.148 483.555 188.602 483.65 188.047 483.65C186.747 483.65 185.603 483.364 184.615 482.792C183.644 482.22 182.882 481.44 182.327 480.452C181.79 479.464 181.521 478.346 181.521 477.098C181.521 475.798 181.816 474.645 182.405 473.64C183.012 472.617 183.826 471.82 184.849 471.248C185.889 470.659 187.059 470.364 188.359 470.364C189.659 470.364 190.829 470.667 191.869 471.274C192.926 471.863 193.758 472.669 194.365 473.692C194.972 474.697 195.275 475.841 195.275 477.124C195.275 477.852 195.188 478.545 195.015 479.204C194.859 479.845 194.59 480.513 194.209 481.206C193.828 481.882 193.316 482.662 192.675 483.546ZM192.675 477.098C192.675 476.231 192.493 475.469 192.129 474.81C191.765 474.134 191.254 473.605 190.595 473.224C189.954 472.843 189.208 472.652 188.359 472.652C187.527 472.652 186.79 472.843 186.149 473.224C185.508 473.605 185.005 474.134 184.641 474.81C184.277 475.469 184.095 476.231 184.095 477.098C184.095 477.947 184.277 478.71 184.641 479.386C185.005 480.045 185.508 480.565 186.149 480.946C186.79 481.31 187.527 481.492 188.359 481.492C189.208 481.492 189.954 481.31 190.595 480.946C191.254 480.565 191.765 480.045 192.129 479.386C192.493 478.71 192.675 477.947 192.675 477.098Z" fill="#494C68" fill-opacity="0.9"/>
  <path d="M263.838 472.756L256.948 479.334L255.284 478.086L261.94 471.69L261.81 472.964H252.164V470.702H263.838V472.756ZM257.156 479.776H255.284V478.086C255.579 477.895 255.943 477.774 256.376 477.722C256.827 477.653 257.26 477.618 257.676 477.618C258.595 477.618 259.453 477.757 260.25 478.034C261.047 478.294 261.749 478.684 262.356 479.204C262.98 479.724 263.457 480.357 263.786 481.102C264.133 481.83 264.306 482.662 264.306 483.598C264.306 484.863 264.011 485.964 263.422 486.9C262.85 487.836 262.053 488.555 261.03 489.058C260.025 489.561 258.889 489.812 257.624 489.812C256.393 489.812 255.301 489.569 254.348 489.084C253.395 488.599 252.641 487.897 252.086 486.978C251.549 486.042 251.28 484.933 251.28 483.65H253.802C253.802 484.863 254.149 485.817 254.842 486.51C255.553 487.186 256.497 487.524 257.676 487.524C258.889 487.524 259.86 487.16 260.588 486.432C261.333 485.704 261.706 484.742 261.706 483.546C261.706 482.419 261.325 481.509 260.562 480.816C259.799 480.123 258.664 479.776 257.156 479.776ZM266.551 480.114C266.551 478.173 266.863 476.474 267.487 475.018C268.129 473.545 269.03 472.401 270.191 471.586C271.353 470.754 272.722 470.338 274.299 470.338C275.877 470.338 277.237 470.754 278.381 471.586C279.543 472.401 280.435 473.545 281.059 475.018C281.701 476.474 282.021 478.173 282.021 480.114C282.021 482.073 281.709 483.78 281.085 485.236C280.479 486.692 279.595 487.827 278.433 488.642C277.289 489.439 275.911 489.838 274.299 489.838C272.687 489.838 271.301 489.439 270.139 488.642C268.978 487.827 268.085 486.692 267.461 485.236C266.855 483.78 266.551 482.073 266.551 480.114ZM269.073 480.114C269.073 481.657 269.281 482.991 269.697 484.118C270.113 485.227 270.703 486.077 271.465 486.666C272.245 487.255 273.19 487.55 274.299 487.55C275.391 487.55 276.327 487.255 277.107 486.666C277.887 486.077 278.477 485.227 278.875 484.118C279.291 482.991 279.499 481.657 279.499 480.114C279.499 478.554 279.291 477.219 278.875 476.11C278.477 474.983 277.887 474.125 277.107 473.536C276.327 472.929 275.391 472.626 274.299 472.626C273.19 472.626 272.245 472.929 271.465 473.536C270.703 474.125 270.113 474.983 269.697 476.11C269.281 477.219 269.073 478.554 269.073 480.114Z" fill="#494C68" fill-opacity="0.9"/>
  <path d="M354.338 472.756L347.448 479.334L345.784 478.086L352.44 471.69L352.31 472.964H342.664V470.702H354.338V472.756ZM347.656 479.776H345.784V478.086C346.079 477.895 346.443 477.774 346.876 477.722C347.327 477.653 347.76 477.618 348.176 477.618C349.095 477.618 349.953 477.757 350.75 478.034C351.547 478.294 352.249 478.684 352.856 479.204C353.48 479.724 353.957 480.357 354.286 481.102C354.633 481.83 354.806 482.662 354.806 483.598C354.806 484.863 354.511 485.964 353.922 486.9C353.35 487.836 352.553 488.555 351.53 489.058C350.525 489.561 349.389 489.812 348.124 489.812C346.893 489.812 345.801 489.569 344.848 489.084C343.895 488.599 343.141 487.897 342.586 486.978C342.049 486.042 341.78 484.933 341.78 483.65H344.302C344.302 484.863 344.649 485.817 345.342 486.51C346.053 487.186 346.997 487.524 348.176 487.524C349.389 487.524 350.36 487.16 351.088 486.432C351.833 485.704 352.206 484.742 352.206 483.546C352.206 482.419 351.825 481.509 351.062 480.816C350.299 480.123 349.164 479.776 347.656 479.776ZM360.385 472.99H356.433V470.702H362.829V489.5H360.385V472.99Z" fill="#494C68" fill-opacity="0.9"/>
  <circle cx="181" cy="239" r="6" fill="#007FF4"/>
  <circle cx="181" cy="305" r="6" fill="#007FF4"/>
  <circle cx="439" cy="237" r="6" fill="#007FF4"/>
  <defs>
    <filter id="filter0_d_54_8083" x="0" y="0" width="693" height="553" filterUnits="userSpaceOnUse" color-interpolation-filters="sRGB">
      <feFlood flood-opacity="0" result="BackgroundImageFix"/>
      <feColorMatrix in="SourceAlpha" type="matrix" values="0 0 0 0 0 0 0 0 0 0 0 0 0 0 0 0 0 0 127 0" result="hardAlpha"/>
      <feOffset dy="4"/>
      <feGaussianBlur stdDeviation="10"/>
      <feComposite in2="hardAlpha" operator="out"/>
      <feColorMatrix type="matrix" values="0 0 0 0 0 0 0 0 0 0 0 0 0 0 0 0 0 0 0.2 0"/>
      <feBlend mode="normal" in2="BackgroundImageFix" result="effect1_dropShadow_54_8083"/>
      <feBlend mode="normal" in="SourceGraphic" in2="effect1_dropShadow_54_8083" result="shape"/>
    </filter>
  </defs>
</svg>
